<?xml version="1.0" encoding="iso-8859-1"?>
<!--
Licensed to the Apache Software Foundation (ASF) under one or more contributor license agreements. See the NOTICE
file distributed with this work for additional information regarding copyright ownership. The ASF licenses this file
to You under the Apache License, Version 2.0 (the "License"); you may not use this file except in compliance with the
License. You may obtain a copy of the License at

http://www.apache.org/licenses/LICENSE-2.0

Unless required by applicable law or agreed to in writing, software distributed under the License is distributed on
an "AS IS" BASIS, WITHOUT WARRANTIES OR CONDITIONS OF ANY KIND, either express or implied. See the License for the
specific language governing permissions and limitations under the License.
-->
<svg
        xmlns:dc="http://purl.org/dc/elements/1.1/"
        xmlns:cc="http://creativecommons.org/ns#"
        xmlns:rdf="http://www.w3.org/1999/02/22-rdf-syntax-ns#"
        xmlns:svg="http://www.w3.org/2000/svg"
        xmlns="http://www.w3.org/2000/svg"
        xmlns:sodipodi="http://sodipodi.sourceforge.net/DTD/sodipodi-0.dtd"
        xmlns:inkscape="http://www.inkscape.org/namespaces/inkscape"
        version="1.1"
        id="Capa_1"
        viewBox="0 0 85.744728 29.487854"
        preserveAspectRatio="xMinYMin meet"
        xml:space="preserve"
        width="85.744728"
        height="29.487854"
        sodipodi:docname="tuweni_logo.svg"
        inkscape:version="1.0.1 (1.0.1+r73)"><sodipodi:namedview
   pagecolor="#ffffff"
   bordercolor="#666666"
   borderopacity="1"
   objecttolerance="10"
   gridtolerance="10"
   guidetolerance="10"
   inkscape:pageopacity="0"
   inkscape:pageshadow="2"
   inkscape:window-width="2488"
   inkscape:window-height="1376"
   id="namedview1573"
   showgrid="false"
   inkscape:zoom="7.2832466"
   inkscape:cx="61.181289"
   inkscape:cy="14.743927"
   inkscape:window-x="72"
   inkscape:window-y="27"
   inkscape:window-maximized="1"
   inkscape:current-layer="g2648" /><metadata
        id="metadata1062"><rdf:RDF><cc:Work
       rdf:about=""><dc:format>image/svg+xml</dc:format><dc:type
        rdf:resource="http://purl.org/dc/dcmitype/StillImage" /><dc:title /></cc:Work></rdf:RDF></metadata>
  <defs
          id="defs1035">
    <linearGradient
            id="feather"
            x1="0.30000001"
            y1="0.050000001"
            x2="0.30000001"
            y2="1">
        <stop
                offset="5%"
                stop-color="#F79A25"
                id="stop1002" />
      <stop
              offset="10%"
              stop-color="#EA7826"
              id="stop1004" />
      <stop
              offset="40%"
              stop-color="#CB2138"
              id="stop1006" />
      <stop
              offset="60%"
              stop-color="#9E2165"
              id="stop1008" />
      <stop
              offset="80%"
              stop-color="#662F8F"
              id="stop1010" />
      <stop
              offset="95%"
              stop-color="#282661"
              id="stop1012" />
    </linearGradient>
    <pattern
            id="never"
            x="0"
            y="0"
            width="10"
            height="10"
            patternUnits="userSpaceOnUse">
      <rect
              x="0"
              y="0"
              width="5"
              height="5"
              fill="#cccccc"
              id="rect1015">
        <animate
                attributeName="fill"
                values="#ccc;#fff;#ccc"
                dur="60s"
                repeatCount="indefinite" />
      </rect>
      <rect
              x="0"
              y="5"
              width="5"
              height="5"
              fill="#FFFFFF"
              id="rect1017">
        <animate
                attributeName="fill"
                values="#fff;#ccc;#fff"
                dur="60s"
                repeatCount="indefinite" />
      </rect>
      <rect
              x="5"
              y="0"
              width="5"
              height="5"
              fill="#FFFFFF"
              id="rect1019">
        <animate
                attributeName="fill"
                values="#fff;#ccc;#fff"
                dur="60s"
                repeatCount="indefinite" />
      </rect>
      <rect
              x="5"
              y="5"
              width="5"
              height="5"
              fill="#cccccc"
              id="rect1021">
        <animate
                attributeName="fill"
                values="#ccc;#fff;#ccc"
                dur="60s"
                repeatCount="indefinite" />
      </rect>
    </pattern>
    <pattern
            id="neverever"
            x="0"
            y="0"
            width="4"
            height="4"
            patternUnits="userSpaceOnUse">
      <rect
              x="0"
              y="0"
              width="4"
              height="4"
              fill="#FFFFFF"
              id="rect1024" />
      <rect
              x="0"
              y="0"
              width="2"
              height="2"
              fill="#FFFFFF"
              id="rect1026" />
      <rect
              x="0"
              y="2"
              width="2"
              height="2"
              fill="#6D6E71"
              id="rect1028">
        <animate
                attributeName="fill"
                values="#6D6E71;#fff;#6D6E71"
                dur="10s"
                repeatCount="indefinite" />
      </rect>
      <rect
              x="2"
              y="0"
              width="2"
              height="2"
              fill="#6D6E71"
              id="rect1030">
        <animate
                attributeName="fill"
                values="#6D6E71;#fff;#6D6E71"
                dur="10s"
                repeatCount="indefinite" />
      </rect>
      <rect
              x="2"
              y="2"
              width="2"
              height="2"
              fill="#FFFFFF"
              id="rect1032" />
    </pattern>
  </defs>
  <g
          id="g1057"
          transform="translate(-5.2233605,-32.848169)">
  <g
          id="g1055">




      <!-- <rect x="16.829" y="47" width="20" height="4" fill="#F79A25"/> -->



    <!-- <rect x="84.842" y="47" width="20" height="4" fill="#F79A25"/> -->





    <g
            id="g2616"
            transform="translate(3.9576578,-0.40323095)"><circle
     cx="6.6932826"
     cy="48.026123"
     r="2.5841024"
     fill="#9E2165"
     id="circle1043"
     style="fill:#000000;fill-opacity:1;stroke-width:0.308955" /><circle
            cx="25.2306"
            cy="48.026123"
            r="2.5841024"
            fill="#EA7826"
            id="circle1047"
            style="fill:#000000;fill-opacity:1;stroke-width:0.308955" /><rect
            x="19.978361"
            y="52.969406"
            width="1.2358212"
            height="3.0895531"
            fill="#D22128"
            id="rect1051"
            style="fill:#000000;fill-opacity:1;stroke-width:0.308955" /><rect
            x="11.018657"
            y="55.750004"
            width="10.195525"
            height="1.2358212"
            fill="#D22128"
            id="rect1053"
            style="fill:#000000;fill-opacity:1;stroke-width:0.308955" /><circle
            style="fill:none;fill-opacity:1;fill-rule:evenodd;stroke:#000000;stroke-width:1.45963;stroke-linecap:round;stroke-linejoin:bevel;stroke-opacity:1"
            id="path2585"
            cx="16.00963"
            cy="47.995327"
            r="14.014112" /></g><g
          id="g2648"
          transform="matrix(0.96552689,0,0,0.96552689,3.2808631,0.42323648)"><g
     aria-label=" TUWENI"
     id="text2589-4"
     style="font-style:normal;font-weight:normal;font-size:12.2188px;line-height:0;font-family:sans-serif;text-align:center;letter-spacing:0px;word-spacing:0px;text-anchor:middle;fill:#323232;fill-opacity:1;stroke:none;stroke-width:0.305469"><g
       aria-label="Tuweni"
       id="text2186"
       style="font-size:14.6765px;line-height:1.25;font-family:'Montserrat Medium';-inkscape-font-specification:'Montserrat Medium, ';text-align:center;letter-spacing:0px;word-spacing:0px;text-anchor:middle;fill:#323232;fill-opacity:1;stroke-width:0.11208"><path
         d="m 38.899445,51.194177 h -3.522361 v -1.276855 h 8.497694 v 1.276855 h -3.52236 v 8.996695 h -1.452973 z"
         style="fill:#323232;fill-opacity:1;stroke-width:0.11208"
         id="path2188" /><path
          d="m 52.328433,52.412327 v 7.778545 h -1.335561 v -1.17412 q -0.425619,0.601737 -1.130091,0.939296 -0.689795,0.322883 -1.511679,0.322883 -1.555709,0 -2.450976,-0.851237 Q 45.00486,58.561781 45.00486,56.88866 v -4.476333 h 1.408944 v 4.314891 q 0,1.130091 0.54303,1.717151 0.543031,0.572383 1.555709,0.572383 1.115414,0 1.76118,-0.675119 0.645766,-0.675119 0.645766,-1.907945 v -4.021361 z"
          style="fill:#323232;fill-opacity:1;stroke-width:0.11208"
          id="path2190" /><path
          d="m 66.784759,52.412327 -2.905947,7.778545 h -1.350238 l -2.245505,-5.899953 -2.274857,5.899953 h -1.350238 l -2.891271,-7.778545 h 1.335562 l 2.260181,6.193483 2.34824,-6.193483 h 1.188796 l 2.304211,6.222836 2.318887,-6.222836 z"
          style="fill:#323232;fill-opacity:1;stroke-width:0.11208"
          id="path2192" /><path
          d="m 75.018231,56.345629 q 0,0.161442 -0.02935,0.425619 h -6.310895 q 0.132089,1.027355 0.895267,1.658444 0.777854,0.616413 1.922621,0.616413 1.394268,0 2.245505,-0.939296 l 0.777854,0.909943 q -0.528354,0.616413 -1.320885,0.939296 -0.777854,0.322883 -1.746503,0.322883 -1.232826,0 -2.186799,-0.499001 -0.953972,-0.513677 -1.482326,-1.42362 -0.513678,-0.909943 -0.513678,-2.05471 0,-1.130091 0.499001,-2.040034 0.513678,-0.909943 1.394268,-1.408944 0.895266,-0.513677 2.01068,-0.513677 1.115414,0 1.981328,0.513677 0.88059,0.499001 1.364914,1.408944 0.499001,0.909943 0.499001,2.084063 z m -3.845243,-2.817888 q -1.012678,0 -1.702474,0.616413 -0.675119,0.616413 -0.792531,1.614415 h 4.99001 q -0.117412,-0.983325 -0.807207,-1.599738 -0.675119,-0.63109 -1.687798,-0.63109 z"
          style="fill:#323232;fill-opacity:1;stroke-width:0.11208"
          id="path2194" /><path
          d="m 81.123647,52.338945 q 1.482327,0 2.34824,0.865913 0.88059,0.851237 0.88059,2.509682 v 4.476332 h -1.408944 v -4.314891 q 0,-1.13009 -0.54303,-1.702474 -0.543031,-0.572383 -1.555709,-0.572383 -1.144768,0 -1.80521,0.675119 -0.660443,0.660442 -0.660443,1.907945 v 4.006684 h -1.408944 v -7.778545 h 1.350238 v 1.17412 q 0.425619,-0.601736 1.144767,-0.924619 0.733826,-0.322883 1.658445,-0.322883 z"
          style="fill:#323232;fill-opacity:1;stroke-width:0.11208"
          id="path2196" /><path
          d="m 86.964891,52.412327 h 1.408944 v 7.778545 h -1.408944 z m 0.704472,-1.497003 q -0.410942,0 -0.689795,-0.264177 -0.264177,-0.264177 -0.264177,-0.645766 0,-0.381589 0.264177,-0.645766 0.278853,-0.278854 0.689795,-0.278854 0.410942,0 0.675119,0.264177 0.278854,0.249501 0.278854,0.63109 0,0.396265 -0.278854,0.675119 -0.264177,0.264177 -0.675119,0.264177 z"
          style="fill:#323232;fill-opacity:1;stroke-width:0.11208"
          id="path2198" /></g></g><g
          id="g196"
          transform="matrix(0.00154755,0,0,-0.00154755,19.355586,58.109159)"><path
       d="M 13309.8,12573.2 11966.5,9343.75 h 2649.8 z m -2999.5,-5778.04 2732.6,6532.54 h 524.5 L 16300,6795.16 h -690.1 l -846.4,2042.54 h -2935 l -837.3,-2042.54 h -680.9"
       style="fill:#d51e27;fill-opacity:1;fill-rule:nonzero;stroke:none"
       id="path198" /></g><g
          id="g200"
          transform="matrix(0.00205478,0,0,-0.00205478,19.355586,58.109159)"><path
       d="m 13285.7,7362.81 h 1573 c 582,0 956.2,533.57 956.2,1129.53 0,616.72 -457.3,1115.63 -997.8,1115.63 h -1531.4 z m -478.1,-2245.1 v 4919.89 h 2037.2 c 845.4,0 1455.2,-783.05 1455.2,-1545.26 0,-803.78 -568.2,-1559.09 -1413.6,-1559.09 H 13285.7 V 5117.71 h -478.1"
       style="fill:#d51e27;fill-opacity:1;fill-rule:nonzero;stroke:none"
       id="path202" /></g><g
          id="g204"
          transform="matrix(0.00258954,0,0,-0.00258954,19.355586,58.109159)"><path
       d="m 14513,7513.92 -802.8,-1929.98 h 1583.6 z m -1792.5,-3453.05 1633,3903.91 h 313.5 l 1633,-3903.91 h -412.4 l -505.8,1220.65 h -1754 l -500.4,-1220.65 h -406.9"
       style="fill:#d51e27;fill-opacity:1;fill-rule:nonzero;stroke:none"
       id="path206" /></g><g
          id="g208"
          transform="matrix(0.00312412,0,0,-0.00312412,19.355586,58.109159)"><path
       d="m 15042.1,6620.15 c 574.3,0 993.6,-291.71 1194.1,-706.43 L 15981,5758.77 c -205.1,428.4 -606.2,574.23 -957.1,574.23 -774.8,0 -1198.7,-692.73 -1198.7,-1344.46 0,-715.56 524.2,-1362.75 1212.3,-1362.75 364.7,0 793.1,182.3 998.2,601.58 l 264.3,-136.69 c -209.6,-483.12 -783.9,-752.02 -1280.7,-752.02 -888.7,0 -1513.1,847.71 -1513.1,1668.08 0,779.34 560.6,1613.41 1535.9,1613.41"
       style="fill:#d51e27;fill-opacity:1;fill-rule:nonzero;stroke:none"
       id="path210" /></g><g
          id="g212"
          transform="matrix(0.00369855,0,0,-0.00369855,19.355586,58.109159)"><path
       d="M 16300,5576.55 V 2843.22 h -269.5 v 1278.1 h -1620.7 v -1278.1 h -265.7 v 2733.33 h 265.7 V 4360.02 h 1620.7 v 1216.53 h 269.5"
       style="fill:#d51e27;fill-opacity:1;fill-rule:nonzero;stroke:none"
       id="path214" /></g><g
          id="g216"
          transform="matrix(0.00425533,0,0,-0.00425533,19.355586,58.109159)"><path
       d="M 16300,2678.66 V 2471.21 H 14703.9 V 4846.9 h 1566 v -207.46 h -1335.1 v -856.59 h 1164.4 V 3585.43 H 14934.8 V 2678.66 H 16300"
       style="fill:#d51e27;fill-opacity:1;fill-rule:nonzero;stroke:none"
       id="path218" /></g></g></g>
  </g>
</svg>

